<mxfile host="app.diagrams.net" agent="Mozilla/5.0 (Windows NT 10.0; Win64; x64) AppleWebKit/537.36 (KHTML, like Gecko) Chrome/140.0.0.0 Safari/537.36" version="28.2.1">
  <diagram name="Página-1" id="EvkalEr-eBRE9tIKQjaT">
    <mxGraphModel dx="1415" dy="495" grid="1" gridSize="10" guides="1" tooltips="1" connect="1" arrows="1" fold="1" page="1" pageScale="1" pageWidth="827" pageHeight="1169" math="0" shadow="0">
      <root>
        <mxCell id="0" />
        <mxCell id="1" parent="0" />
        <mxCell id="2emIkOKWcGdTkYw_I4e8-2" value="" style="edgeStyle=none;rounded=0;orthogonalLoop=1;jettySize=auto;html=1;dashed=1;endArrow=none;endFill=0;" edge="1" parent="1">
          <mxGeometry relative="1" as="geometry">
            <mxPoint x="190" y="170" as="sourcePoint" />
            <mxPoint x="190" y="620" as="targetPoint" />
          </mxGeometry>
        </mxCell>
        <mxCell id="2emIkOKWcGdTkYw_I4e8-3" value="&lt;font style=&quot;font-size: 10px;&quot;&gt;Admin&lt;/font&gt;" style="shape=umlActor;verticalLabelPosition=bottom;verticalAlign=top;html=1;" vertex="1" parent="1">
          <mxGeometry x="180" y="108" width="20" height="40" as="geometry" />
        </mxCell>
        <mxCell id="2emIkOKWcGdTkYw_I4e8-49" style="edgeStyle=none;rounded=0;orthogonalLoop=1;jettySize=auto;html=1;curved=0;exitX=1;exitY=0;exitDx=0;exitDy=5;exitPerimeter=0;" edge="1" parent="1">
          <mxGeometry relative="1" as="geometry">
            <mxPoint x="195" y="217" as="sourcePoint" />
            <mxPoint x="305.03999999999996" y="217" as="targetPoint" />
          </mxGeometry>
        </mxCell>
        <mxCell id="2emIkOKWcGdTkYw_I4e8-5" value="" style="html=1;points=[[0,0,0,0,5],[0,1,0,0,-5],[1,0,0,0,5],[1,1,0,0,-5]];perimeter=orthogonalPerimeter;outlineConnect=0;targetShapes=umlLifeline;portConstraint=eastwest;newEdgeStyle={&quot;curved&quot;:0,&quot;rounded&quot;:0};" vertex="1" parent="1">
          <mxGeometry x="185" y="200" width="10" height="390" as="geometry" />
        </mxCell>
        <mxCell id="2emIkOKWcGdTkYw_I4e8-7" value="&lt;font style=&quot;font-size: 10px;&quot;&gt;UEg&lt;/font&gt;" style="shape=umlLifeline;perimeter=lifelinePerimeter;whiteSpace=wrap;html=1;container=1;dropTarget=0;collapsible=0;recursiveResize=0;outlineConnect=0;portConstraint=eastwest;newEdgeStyle={&quot;curved&quot;:0,&quot;rounded&quot;:0};" vertex="1" parent="1">
          <mxGeometry x="260" y="120" width="100" height="500" as="geometry" />
        </mxCell>
        <mxCell id="2emIkOKWcGdTkYw_I4e8-8" value="&lt;font style=&quot;font-size: 10px;&quot;&gt;UEv&lt;/font&gt;" style="shape=umlLifeline;perimeter=lifelinePerimeter;whiteSpace=wrap;html=1;container=1;dropTarget=0;collapsible=0;recursiveResize=0;outlineConnect=0;portConstraint=eastwest;newEdgeStyle={&quot;curved&quot;:0,&quot;rounded&quot;:0};" vertex="1" parent="1">
          <mxGeometry x="370" y="120" width="100" height="500" as="geometry" />
        </mxCell>
        <mxCell id="2emIkOKWcGdTkYw_I4e8-9" value="" style="html=1;points=[[0,0,0,0,5],[0,1,0,0,-5],[1,0,0,0,5],[1,1,0,0,-5]];perimeter=orthogonalPerimeter;outlineConnect=0;targetShapes=umlLifeline;portConstraint=eastwest;newEdgeStyle={&quot;curved&quot;:0,&quot;rounded&quot;:0};" vertex="1" parent="2emIkOKWcGdTkYw_I4e8-8">
          <mxGeometry x="-64.96" y="80" width="10" height="390" as="geometry" />
        </mxCell>
        <mxCell id="2emIkOKWcGdTkYw_I4e8-58" style="edgeStyle=none;rounded=0;orthogonalLoop=1;jettySize=auto;html=1;curved=0;dashed=1;" edge="1" parent="2emIkOKWcGdTkYw_I4e8-8">
          <mxGeometry relative="1" as="geometry">
            <mxPoint x="45" y="118" as="sourcePoint" />
            <mxPoint x="-54.960000000000036" y="118" as="targetPoint" />
          </mxGeometry>
        </mxCell>
        <mxCell id="2emIkOKWcGdTkYw_I4e8-51" value="" style="html=1;points=[[0,0,0,0,5],[0,1,0,0,-5],[1,0,0,0,5],[1,1,0,0,-5]];perimeter=orthogonalPerimeter;outlineConnect=0;targetShapes=umlLifeline;portConstraint=eastwest;newEdgeStyle={&quot;curved&quot;:0,&quot;rounded&quot;:0};" vertex="1" parent="2emIkOKWcGdTkYw_I4e8-8">
          <mxGeometry x="45" y="80" width="10" height="190" as="geometry" />
        </mxCell>
        <mxCell id="2emIkOKWcGdTkYw_I4e8-65" style="edgeStyle=none;rounded=0;orthogonalLoop=1;jettySize=auto;html=1;curved=0;exitX=0;exitY=0;exitDx=0;exitDy=5;exitPerimeter=0;" edge="1" parent="2emIkOKWcGdTkYw_I4e8-8">
          <mxGeometry relative="1" as="geometry">
            <mxPoint x="45" y="330" as="sourcePoint" />
            <mxPoint x="-54.960000000000036" y="330" as="targetPoint" />
          </mxGeometry>
        </mxCell>
        <mxCell id="2emIkOKWcGdTkYw_I4e8-22" value="" style="html=1;points=[[0,0,0,0,5],[0,1,0,0,-5],[1,0,0,0,5],[1,1,0,0,-5]];perimeter=orthogonalPerimeter;outlineConnect=0;targetShapes=umlLifeline;portConstraint=eastwest;newEdgeStyle={&quot;curved&quot;:0,&quot;rounded&quot;:0};" vertex="1" parent="2emIkOKWcGdTkYw_I4e8-8">
          <mxGeometry x="45" y="309" width="10" height="95" as="geometry" />
        </mxCell>
        <mxCell id="2emIkOKWcGdTkYw_I4e8-70" style="edgeStyle=none;rounded=0;orthogonalLoop=1;jettySize=auto;html=1;curved=0;dashed=1;" edge="1" parent="2emIkOKWcGdTkYw_I4e8-8">
          <mxGeometry relative="1" as="geometry">
            <mxPoint x="-54.960000000000036" y="345.76" as="sourcePoint" />
            <mxPoint x="45" y="345.76" as="targetPoint" />
          </mxGeometry>
        </mxCell>
        <mxCell id="2emIkOKWcGdTkYw_I4e8-80" value="" style="edgeStyle=orthogonalEdgeStyle;rounded=0;orthogonalLoop=1;jettySize=auto;html=1;" edge="1" parent="2emIkOKWcGdTkYw_I4e8-8">
          <mxGeometry relative="1" as="geometry">
            <mxPoint x="-54.960000000000036" y="413" as="sourcePoint" />
            <mxPoint x="-54.960000000000036" y="433" as="targetPoint" />
            <Array as="points">
              <mxPoint x="-10" y="413" />
              <mxPoint x="-10" y="433" />
            </Array>
          </mxGeometry>
        </mxCell>
        <mxCell id="2emIkOKWcGdTkYw_I4e8-10" value="&lt;font style=&quot;font-size: 10px;&quot;&gt;Eleitor&lt;/font&gt;" style="shape=umlLifeline;perimeter=lifelinePerimeter;whiteSpace=wrap;html=1;container=1;dropTarget=0;collapsible=0;recursiveResize=0;outlineConnect=0;portConstraint=eastwest;newEdgeStyle={&quot;curved&quot;:0,&quot;rounded&quot;:0};" vertex="1" parent="1">
          <mxGeometry x="480" y="120" width="100" height="500" as="geometry" />
        </mxCell>
        <mxCell id="2emIkOKWcGdTkYw_I4e8-50" value="&lt;font style=&quot;font-size: 7px;&quot;&gt;Carregar informações&lt;/font&gt;" style="text;html=1;align=center;verticalAlign=middle;resizable=0;points=[];autosize=1;strokeColor=none;fillColor=none;" vertex="1" parent="1">
          <mxGeometry x="200" y="194" width="90" height="30" as="geometry" />
        </mxCell>
        <mxCell id="2emIkOKWcGdTkYw_I4e8-52" style="edgeStyle=none;rounded=0;orthogonalLoop=1;jettySize=auto;html=1;curved=0;exitX=1;exitY=0;exitDx=0;exitDy=5;exitPerimeter=0;" edge="1" parent="1">
          <mxGeometry relative="1" as="geometry">
            <mxPoint x="315.03999999999996" y="217" as="sourcePoint" />
            <mxPoint x="415" y="217" as="targetPoint" />
          </mxGeometry>
        </mxCell>
        <mxCell id="2emIkOKWcGdTkYw_I4e8-54" style="edgeStyle=none;rounded=0;orthogonalLoop=1;jettySize=auto;html=1;curved=0;exitX=1;exitY=0;exitDx=0;exitDy=5;exitPerimeter=0;" edge="1" parent="1">
          <mxGeometry relative="1" as="geometry">
            <mxPoint x="315.03999999999996" y="298" as="sourcePoint" />
            <mxPoint x="415" y="298" as="targetPoint" />
          </mxGeometry>
        </mxCell>
        <mxCell id="2emIkOKWcGdTkYw_I4e8-55" value="&lt;font style=&quot;font-size: 7px;&quot;&gt;Autenticar UEv&lt;/font&gt;" style="text;html=1;align=center;verticalAlign=middle;resizable=0;points=[];autosize=1;strokeColor=none;fillColor=none;" vertex="1" parent="1">
          <mxGeometry x="329" y="276" width="70" height="30" as="geometry" />
        </mxCell>
        <mxCell id="2emIkOKWcGdTkYw_I4e8-57" value="Verifica UEv" style="text;html=1;align=center;verticalAlign=middle;resizable=0;points=[];autosize=1;strokeColor=none;fillColor=none;fontSize=7;" vertex="1" parent="1">
          <mxGeometry x="320" y="199" width="60" height="20" as="geometry" />
        </mxCell>
        <mxCell id="2emIkOKWcGdTkYw_I4e8-56" style="rounded=0;orthogonalLoop=1;jettySize=auto;html=1;exitX=1;exitY=0;exitDx=0;exitDy=5;exitPerimeter=0;" edge="1" parent="1" target="2emIkOKWcGdTkYw_I4e8-51">
          <mxGeometry relative="1" as="geometry">
            <mxPoint x="315.03999999999996" y="294" as="targetPoint" />
            <mxPoint x="315.03999999999996" y="270" as="sourcePoint" />
          </mxGeometry>
        </mxCell>
        <mxCell id="2emIkOKWcGdTkYw_I4e8-59" value="&lt;font style=&quot;font-size: 7px;&quot;&gt;Cadastro Existe?&lt;/font&gt;" style="text;html=1;align=center;verticalAlign=middle;resizable=0;points=[];autosize=1;strokeColor=none;fillColor=none;" vertex="1" parent="1">
          <mxGeometry x="334" y="216" width="80" height="30" as="geometry" />
        </mxCell>
        <mxCell id="2emIkOKWcGdTkYw_I4e8-60" value="&lt;font style=&quot;font-size: 7px;&quot;&gt;Se não existe: Criar UEv&lt;/font&gt;" style="text;html=1;align=center;verticalAlign=middle;resizable=0;points=[];autosize=1;strokeColor=none;fillColor=none;" vertex="1" parent="1">
          <mxGeometry x="313" y="246" width="100" height="30" as="geometry" />
        </mxCell>
        <mxCell id="2emIkOKWcGdTkYw_I4e8-61" style="edgeStyle=none;rounded=0;orthogonalLoop=1;jettySize=auto;html=1;curved=0;" edge="1" parent="1">
          <mxGeometry relative="1" as="geometry">
            <mxPoint x="315.03999999999996" y="328" as="sourcePoint" />
            <mxPoint x="415" y="328" as="targetPoint" />
          </mxGeometry>
        </mxCell>
        <mxCell id="2emIkOKWcGdTkYw_I4e8-62" value="&lt;font style=&quot;font-size: 7px;&quot;&gt;Carregar lista de eleitores&lt;/font&gt;" style="text;html=1;align=center;verticalAlign=middle;resizable=0;points=[];autosize=1;strokeColor=none;fillColor=none;" vertex="1" parent="1">
          <mxGeometry x="313" y="306" width="100" height="30" as="geometry" />
        </mxCell>
        <mxCell id="2emIkOKWcGdTkYw_I4e8-63" style="edgeStyle=none;rounded=0;orthogonalLoop=1;jettySize=auto;html=1;curved=0;exitX=1;exitY=0;exitDx=0;exitDy=5;exitPerimeter=0;" edge="1" parent="1">
          <mxGeometry relative="1" as="geometry">
            <mxPoint x="315.03999999999996" y="360" as="sourcePoint" />
            <mxPoint x="415" y="360" as="targetPoint" />
          </mxGeometry>
        </mxCell>
        <mxCell id="2emIkOKWcGdTkYw_I4e8-64" value="&lt;font style=&quot;font-size: 7px;&quot;&gt;Carregar lista de candidatos&lt;/font&gt;" style="text;html=1;align=center;verticalAlign=middle;resizable=0;points=[];autosize=1;strokeColor=none;fillColor=none;" vertex="1" parent="1">
          <mxGeometry x="308" y="337" width="110" height="30" as="geometry" />
        </mxCell>
        <mxCell id="2emIkOKWcGdTkYw_I4e8-67" value="&lt;font style=&quot;font-size: 7px;&quot;&gt;Já votou?&lt;/font&gt;" style="text;html=1;align=center;verticalAlign=middle;resizable=0;points=[];autosize=1;strokeColor=none;fillColor=none;" vertex="1" parent="1">
          <mxGeometry x="475" y="476" width="50" height="30" as="geometry" />
        </mxCell>
        <mxCell id="2emIkOKWcGdTkYw_I4e8-68" style="edgeStyle=none;rounded=0;orthogonalLoop=1;jettySize=auto;html=1;curved=0;exitX=0;exitY=1;exitDx=0;exitDy=-5;exitPerimeter=0;dashed=1;" edge="1" parent="1">
          <mxGeometry relative="1" as="geometry">
            <mxPoint x="525" y="498.9999999999999" as="sourcePoint" />
            <mxPoint x="425" y="498.9999999999999" as="targetPoint" />
          </mxGeometry>
        </mxCell>
        <mxCell id="2emIkOKWcGdTkYw_I4e8-69" value="&lt;font style=&quot;font-size: 7px;&quot;&gt;Solicitar nova comunicação&lt;/font&gt;" style="text;html=1;align=center;verticalAlign=middle;resizable=0;points=[];autosize=1;strokeColor=none;fillColor=none;" vertex="1" parent="1">
          <mxGeometry x="313" y="425" width="110" height="30" as="geometry" />
        </mxCell>
        <mxCell id="2emIkOKWcGdTkYw_I4e8-71" value="" style="edgeStyle=none;rounded=0;orthogonalLoop=1;jettySize=auto;html=1;curved=0;" edge="1" parent="1">
          <mxGeometry relative="1" as="geometry">
            <mxPoint x="425" y="476" as="sourcePoint" />
            <mxPoint x="525" y="476" as="targetPoint" />
          </mxGeometry>
        </mxCell>
        <mxCell id="2emIkOKWcGdTkYw_I4e8-11" value="" style="html=1;points=[[0,0,0,0,5],[0,1,0,0,-5],[1,0,0,0,5],[1,1,0,0,-5]];perimeter=orthogonalPerimeter;outlineConnect=0;targetShapes=umlLifeline;portConstraint=eastwest;newEdgeStyle={&quot;curved&quot;:0,&quot;rounded&quot;:0};" vertex="1" parent="1">
          <mxGeometry x="525" y="459" width="10" height="50" as="geometry" />
        </mxCell>
        <mxCell id="2emIkOKWcGdTkYw_I4e8-72" value="&lt;font style=&quot;font-size: 7px;&quot;&gt;Eleitor Ausente?&lt;/font&gt;" style="text;html=1;align=center;verticalAlign=middle;resizable=0;points=[];autosize=1;strokeColor=none;fillColor=none;" vertex="1" parent="1">
          <mxGeometry x="423" y="454" width="70" height="30" as="geometry" />
        </mxCell>
        <mxCell id="2emIkOKWcGdTkYw_I4e8-73" style="edgeStyle=none;rounded=0;orthogonalLoop=1;jettySize=auto;html=1;curved=0;exitX=0;exitY=1;exitDx=0;exitDy=-5;exitPerimeter=0;" edge="1" parent="1">
          <mxGeometry relative="1" as="geometry">
            <mxPoint x="414" y="498.9999999999999" as="sourcePoint" />
            <mxPoint x="314" y="498.9999999999999" as="targetPoint" />
          </mxGeometry>
        </mxCell>
        <mxCell id="2emIkOKWcGdTkYw_I4e8-74" value="&lt;font style=&quot;font-size: 7px;&quot;&gt;Contabiliza votos&lt;/font&gt;" style="text;html=1;align=center;verticalAlign=middle;resizable=0;points=[];autosize=1;strokeColor=none;fillColor=none;" vertex="1" parent="1">
          <mxGeometry x="320" y="477" width="80" height="30" as="geometry" />
        </mxCell>
        <mxCell id="2emIkOKWcGdTkYw_I4e8-75" style="edgeStyle=none;rounded=0;orthogonalLoop=1;jettySize=auto;html=1;curved=0;exitX=1;exitY=0;exitDx=0;exitDy=5;exitPerimeter=0;" edge="1" parent="1">
          <mxGeometry relative="1" as="geometry">
            <mxPoint x="195" y="533" as="sourcePoint" />
            <mxPoint x="305.03999999999996" y="533" as="targetPoint" />
          </mxGeometry>
        </mxCell>
        <mxCell id="2emIkOKWcGdTkYw_I4e8-77" value="&lt;font style=&quot;font-size: 7px;&quot;&gt;Gerar relatório&lt;/font&gt;" style="text;html=1;align=center;verticalAlign=middle;resizable=0;points=[];autosize=1;strokeColor=none;fillColor=none;" vertex="1" parent="1">
          <mxGeometry x="210" y="509" width="70" height="30" as="geometry" />
        </mxCell>
        <mxCell id="2emIkOKWcGdTkYw_I4e8-81" value="&lt;font style=&quot;font-size: 7px;&quot;&gt;Consolidar resultados&lt;/font&gt;" style="text;html=1;align=center;verticalAlign=middle;resizable=0;points=[];autosize=1;strokeColor=none;fillColor=none;" vertex="1" parent="1">
          <mxGeometry x="308" y="510" width="90" height="30" as="geometry" />
        </mxCell>
        <mxCell id="2emIkOKWcGdTkYw_I4e8-82" style="edgeStyle=none;rounded=0;orthogonalLoop=1;jettySize=auto;html=1;curved=0;dashed=1;" edge="1" parent="1">
          <mxGeometry relative="1" as="geometry">
            <mxPoint x="415" y="377.76" as="sourcePoint" />
            <mxPoint x="315.03999999999996" y="377.76" as="targetPoint" />
          </mxGeometry>
        </mxCell>
        <mxCell id="2emIkOKWcGdTkYw_I4e8-83" style="edgeStyle=none;rounded=0;orthogonalLoop=1;jettySize=auto;html=1;curved=0;dashed=1;" edge="1" parent="1">
          <mxGeometry relative="1" as="geometry">
            <mxPoint x="305.03999999999996" y="420.76" as="sourcePoint" />
            <mxPoint x="195.01999999999998" y="420.76" as="targetPoint" />
          </mxGeometry>
        </mxCell>
        <mxCell id="2emIkOKWcGdTkYw_I4e8-84" value="" style="edgeStyle=orthogonalEdgeStyle;rounded=0;orthogonalLoop=1;jettySize=auto;html=1;" edge="1" parent="1">
          <mxGeometry relative="1" as="geometry">
            <mxPoint x="315.03999999999996" y="390" as="sourcePoint" />
            <mxPoint x="315.03999999999996" y="410" as="targetPoint" />
            <Array as="points">
              <mxPoint x="360" y="390" />
              <mxPoint x="360" y="410" />
            </Array>
          </mxGeometry>
        </mxCell>
        <mxCell id="2emIkOKWcGdTkYw_I4e8-85" value="&lt;font style=&quot;font-size: 7px;&quot;&gt;Exibe mensagem de sucesso&lt;/font&gt;" style="text;html=1;align=center;verticalAlign=middle;resizable=0;points=[];autosize=1;strokeColor=none;fillColor=none;" vertex="1" parent="1">
          <mxGeometry x="198" y="397" width="110" height="30" as="geometry" />
        </mxCell>
        <mxCell id="2emIkOKWcGdTkYw_I4e8-87" style="edgeStyle=none;rounded=0;orthogonalLoop=1;jettySize=auto;html=1;curved=0;dashed=1;" edge="1" parent="1">
          <mxGeometry relative="1" as="geometry">
            <mxPoint x="305.0199999999999" y="562" as="sourcePoint" />
            <mxPoint x="195" y="562" as="targetPoint" />
          </mxGeometry>
        </mxCell>
        <mxCell id="2emIkOKWcGdTkYw_I4e8-88" value="&lt;font style=&quot;font-size: 7px;&quot;&gt;Relatório gerado&lt;/font&gt;" style="text;html=1;align=center;verticalAlign=middle;resizable=0;points=[];autosize=1;strokeColor=none;fillColor=none;" vertex="1" parent="1">
          <mxGeometry x="205" y="539" width="80" height="30" as="geometry" />
        </mxCell>
      </root>
    </mxGraphModel>
  </diagram>
</mxfile>
